<?xml version="1.0" encoding="UTF-8"?>
<svg id="Layer_2" data-name="Layer 2" xmlns="http://www.w3.org/2000/svg" viewBox="0 0 75.02 69.95">
  <defs>
    <style>
      .cls-1 {
        fill: #facc15;
      }

      .cls-2 {
        fill: #060501;
      }

      .cls-3 {
        fill: #696666;
      }

      .cls-4 {
        fill: #e9e0e0;
      }

      .cls-5 {
        fill: #e4abab;
      }

      .cls-6 {
        fill: #fef4f4;
      }

      .cls-7 {
        fill: #6b6868;
      }

      .cls-8 {
        fill: #6b5e31;
      }

      .cls-9 {
        fill: #7e908e;
      }

      .cls-10 {
        fill: #66592b;
      }

      .cls-11 {
        fill: #7e7a7a;
      }

      .cls-12 {
        fill: #685925;
      }

      .cls-13 {
        fill: #99adac;
      }

      .cls-14 {
        fill: #6c6969;
      }

      .cls-15 {
        fill: #7f908e;
      }

      .cls-16 {
        fill: #928c8c;
      }

      .cls-17 {
        fill: #a09a9a;
      }

      .cls-18 {
        fill: #a0b6b4;
      }

      .cls-19 {
        fill: #9eb3b1;
      }

      .cls-20 {
        fill: #c1baba;
      }

      .cls-21 {
        fill: #c1b9b9;
      }

      .cls-22 {
        fill: #323030;
      }

      .cls-23 {
        fill: #302d26;
      }

      .cls-24 {
        fill: #312a10;
      }

      .cls-25 {
        fill: #a7bebc;
      }

      .cls-26 {
        fill: #bc9910;
      }

      .cls-27 {
        fill: #d9d1d1;
      }

      .cls-28 {
        fill: #dba4a4;
      }

      .cls-29 {
        fill: #dbd3d3;
      }

      .cls-30 {
        fill: #c8c1c1;
      }

      .cls-31 {
        fill: #221d08;
      }

      .cls-32 {
        fill: #222626;
      }

      .cls-33 {
        fill: #212121;
      }

      .cls-34 {
        fill: #424040;
      }

      .cls-35 {
        fill: #40391f;
      }

      .cls-36 {
        fill: #404343;
      }

      .cls-37 {
        fill: #403714;
      }

      .cls-38 {
        fill: #151414;
      }

      .cls-39 {
        fill: #111;
      }

      .cls-40 {
        fill: #1c190f;
      }

      .cls-41 {
        fill: #36301d;
      }

      .cls-42 {
        fill: #363636;
      }

      .cls-43 {
        fill: #373636;
      }

      .cls-44 {
        fill: #191712;
      }

      .cls-45 {
        fill: #3e3619;
      }

      .cls-46 {
        fill: #706d6d;
      }

      .cls-47 {
        fill: #463e22;
      }

      .cls-48 {
        fill: #535050;
      }

      .cls-49 {
        fill: #534616;
      }

      .cls-50 {
        fill: #9a9a9a;
      }

      .cls-51 {
        fill: #6d5909;
      }

      .cls-52 {
        fill: #555252;
      }

      .cls-53 {
        fill: #645108;
      }

      .cls-54 {
        fill: #5b4b07;
      }

      .cls-55 {
        fill: #5b5339;
      }

      .cls-56 {
        fill: #2b2303;
      }

      .cls-57 {
        fill: #2c2718;
      }

      .cls-58 {
        fill: #2c260f;
      }

      .cls-59 {
        fill: #564c28;
      }

      .cls-60 {
        fill: #4a4227;
      }

      .cls-61 {
        fill: #4a4125;
      }

      .cls-62 {
        fill: #29302f;
      }

      .cls-63 {
        fill: #474444;
      }

      .cls-64 {
        fill: #382e04;
      }

      .cls-65 {
        fill: #383118;
      }

      .cls-66 {
        fill: #262424;
      }

      .cls-67 {
        fill: #352c05;
      }

      .cls-68 {
        fill: #3b3312;
      }

      .cls-69 {
        fill: #2e2d2d;
      }

      .cls-70 {
        fill: #3d3b3b;
      }

      .cls-71 {
        fill: #3d361c;
      }

      .cls-72 {
        fill: #272727;
      }

      .cls-73 {
        fill: #5a5757;
      }

      .cls-74 {
        fill: #39321a;
      }

      .cls-75 {
        fill: #393e3e;
      }

      .cls-76 {
        fill: #574d2e;
      }

      .cls-77 {
        fill: #2f2a16;
      }

      .cls-78 {
        fill: #625f5f;
      }

      .cls-79 {
        fill: #4a4848;
      }

      .cls-80 {
        fill: #60552d;
      }

      .cls-81 {
        fill: #60542a;
      }

      .cls-82 {
        fill: #605d5d;
      }

      .cls-83 {
        fill: #5f573e;
      }

      .cls-84 {
        fill: #777373;
      }

      .cls-85 {
        fill: #777474;
      }

      .cls-86 {
        fill: #62541e;
      }

      .cls-87 {
        fill: #615527;
      }

      .cls-88 {
        fill: #797575;
      }

      .cls-89 {
        fill: #4b4848;
      }

      .cls-90 {
        fill: #524619;
      }

      .cls-91 {
        fill: #525050;
      }

      .cls-92 {
        fill: #514413;
      }

      .cls-93 {
        fill: #504a36;
      }

      .cls-94 {
        fill: #4f5655;
      }

      .cls-95 {
        fill: #312f2f;
      }

      .cls-96 {
        fill: #282103;
      }

      .cls-97 {
        fill: #343434;
      }

      .cls-98 {
        fill: #515d5c;
      }

      .cls-99 {
        fill: #4d4c4c;
      }

      .cls-100 {
        fill: #4e4734;
      }
    </style>
  </defs>
  <g id="Layer_1-2" data-name="Layer 1">
    <g>
      <path class="cls-1" d="M65.15,11.84c10.33,9.09,13.91,27.28,4.1,41.89-15.3,22.79-51.85,21.28-65.1-2.73C-5.12,34.19,1.62,13.69,19.49,4.31,33.79-3.2,52.29-.71,64.1,10.32c.46,.43,.75,1.06,1.11,1.6-.82,.3-1.5,.85-2.24,1.3-1.3,.49-2.52,.29-3.68-.41-.49-.15-1-.47-1.43,.11,.04,.87,.72,1.43,.93,2.19,.32,2.28-1.67,2.17-2.92,2.83-.4,.18-.8,.36-1.19,.56-1,.43-1.91,1.13-3.09,1.08-.44-.04-.87-.15-1.28-.31-1.34-.71-2.37-1.88-3.72-2.58-.39-.22-.75-.47-1.11-.74-2.29-1.61-3.77-5.69-7.61-2.43-1.37,.51-2.79,.83-4.19,1.24-2.71,.48-5.43,.47-8.15,.1-1.33-.05-2.57-1.56-3.98-.23-.3,.54-.55,1.09-.81,1.64-.76,1.56-1.63,3.07-2.17,4.73-.19,.62-.4,1.24-.65,1.84-.33,.79-.7,1.56-1.03,2.34-.56,1.37-1.05,2.76-1.29,4.22-.18,1.27-.19,2.56-.49,3.8-.15,.61-.35,1.2-.51,1.8-.31,1.22-.15,2.41,.28,3.58,.14,.41,.23,.84,.3,1.27,.52,5.03-4.11,2.62-5.97,4.17-.35,.45-.37,.88,.09,1.29,1.54,.54,3.21,.17,4.72,.79,1.06,.46,1.83,1.25,2.5,2.16,.51,.72,.92,1.49,1.32,2.27,.4,.75,.77,1.51,1.19,2.25,.71,1.28,1.59,2.41,2.82,3.24,1.25,.79,2.63,1.21,4.07,1.44,1.05,.13,2.1,.15,3.16,.12,1.07-.02,2.11-.18,3.12-.52,1.03-.32,2.06-.64,3.05-1.08,1.21-.55,2.43-1.04,3.73-1.32,1.89-.45,3.79-.87,5.64-1.45,.39-.17,.79-.32,1.18-.47,1.19-.46,2.33-1.03,3.42-1.69,2-1.16,3.65-2.68,4.86-4.66,.19-.4,.4-.8,.59-1.2,.46-1.04,.7-2.15,1.01-3.23,.5-3.1,.23-6.21,.25-9.31,.02-1.87-.64-3.57-1.27-5.28-.34-.83-.7-1.65-1.08-2.47-.48-1.03-.98-2.06-1.08-3.22-.08-1.67,.96-2.49,2.33-3.06,.41-.19,.82-.39,1.22-.6,1.52-.5,2.97-1.08,3.52-2.81,.92-1.5,2.7-1.43,4.01-2.2,.48-.44,1.07-.72,1.56-1.14Z"/>
      <path class="cls-81" d="M7.49,43.82c1.49-2.9,4.09-1.58,6.45-1.39,.07-1.36,.13-2.47,.18-3.57,.4-.32,.84-.38,1.32-.21,1.14,1.37,1.61,2.93,1.35,4.7-.25,.7-.71,1.24-1.35,1.62-.44,.19-.9,.27-1.37,.27-1.8-.32-3.67-.17-5.46-.63-.42-.2-.79-.46-1.13-.78Z"/>
      <path class="cls-47" d="M38.14,12.61c.74-1.06,1.67-1.9,2.99-2.63,1.72,1.84,3.47,3.69,5.21,5.54,.27,.22,.4,.47,.37,.75-.03,.29-.08,.44-.15,.44-.37,.29-.8,.38-1.26,.31-1.47-.52-2.59-1.59-3.8-2.5-.73-.15-.08-1.26-.93-1.33-.35,.14-.71,.21-1.08,.24-.38-.02-.74-.13-1.07-.32-.09-.16-.18-.33-.28-.49Z"/>
      <path class="cls-64" d="M59.39,11.69c.99,.85,2.1,1.25,3.41,.98,.45-.21,.88-.18,1.31,.06-.85,1.56-3.02,1.45-3.84,3.04-1.1,.62-1.49-.56-2.21-.88-1.97-.24-2.36-1.33-1.63-3.03,.51-.45,.88-.17,1.23,.21,0-.01,.38,.24,.38,.24,0,0,.08-.45,.08-.46,.38-.44,.8-.54,1.27-.16Z"/>
      <path class="cls-10" d="M55.03,46.73c-1.15,2.42-2.97,4.13-5.45,5.15-.44,.24-.89,.27-1.36,.1,.03-3.63,3.22-4.22,5.49-5.69,.49-.03,.94,.11,1.32,.43Z"/>
      <path class="cls-35" d="M24.29,13.31c3.3,.99,6.68,0,10,.39,.88-.38,1.76-.77,2.15,.6-3.86,3.25-7.98,2.17-12.13,.74-.36-.57-.37-1.15-.02-1.73Z"/>
      <path class="cls-45" d="M57.13,31.74c.17,3.77,1.01,7.58-.72,11.23-.2-.18-.41-.35-.61-.53-.88-1.47-.76-3.11-.82-4.73,.04-1.88-.16-3.8,.77-5.56,.35-.52,.81-.65,1.38-.41Z"/>
      <path class="cls-80" d="M17.56,20.84c.64-1.78,1.15-3.62,2.39-5.12,.36-.42,.79-.47,1.27-.22,.95,2.7-.11,4.74-2.13,6.46-.93,.21-1.31-.34-1.52-1.12Z"/>
      <path class="cls-87" d="M45.32,53.82c-1.79,1.34-3.88,1.67-6.03,1.83-.35-.36-.49-.78-.42-1.28,1.14-2.01,3.13-1.89,5.03-2.01,.76,.21,1.23,.7,1.41,1.46Z"/>
      <path class="cls-54" d="M58.05,14.89c.74,.29,1.48,.59,2.21,.88-.63,1.99-2.41,2.32-4.06,2.85-.45-.17-.79-.47-1-.9,.7-1.19,3.09-.69,2.85-2.83Z"/>
      <path class="cls-8" d="M57.13,31.74c-.35,.02-.69,.03-1.04,.05-2.65-1.05-2.44-3.08-1.8-5.25,.52-.36,.98-.3,1.38,.19,1.05,1.51,1.41,3.21,1.46,5.01Z"/>
      <path class="cls-58" d="M39.27,54.58c0,.36,0,.71,.01,1.07-1.29,.42-2.58,.83-3.87,1.25-1.95,0-1.68-1.13-1.21-2.37,1.7-1.12,3.39-1.22,5.07,.05Z"/>
      <path class="cls-49" d="M34.21,54.94c.08,.85,.4,1.55,1.2,1.95-.83,.81-1.86,1.02-2.97,1-.39,.23-.8,.28-1.23,.12-.24-.38-.3-.79-.19-1.22-.42-.94,2.44,.41,.91-1.3,.01-.46,.2-.82,.58-1.08,.68-.19,1.28-.11,1.69,.54Z"/>
      <path class="cls-74" d="M21.23,56.8c-1.79-.78-2.86-2.19-3.47-3.99,.39-.34,.84-.49,1.35-.46,1.93,.87,3.47,2.03,3.39,4.43-.42,.45-.84,.45-1.27,.02Z"/>
      <path class="cls-77" d="M14.23,47.05c-1.47-.02-2.94-.02-4.41-.06-.97-.03-2-.01-2.38-1.22,.39-.37,.84-.64,1.34-.82,1.83-.12,3.69-.52,5.36,.66,.36,.47,.38,.95,.08,1.45Z"/>
      <path class="cls-83" d="M14.67,28.86c.35-1.43,.24-3.01,1.39-4.17,.46-.37,.92-.36,1.38,.02,.39,2.14,.48,4.17-1.9,5.31-.53-.2-.82-.59-.87-1.16Z"/>
      <path class="cls-90" d="M51.26,18.97c1.03-.34,2.05-.68,3.08-1.02,.46,.16,.8,.47,1.03,.9-.7,1.03-2.7,1.08-2.26,2.97-.19,.08-.38,.16-.57,.25-.19-.09-.37-.18-.56-.26-.29-.31-.51-.65-.69-1.03-.22-.6-.33-1.2-.03-1.81Z"/>
      <path class="cls-12" d="M24.29,13.31c-.02,.38-.04,.76-.07,1.14-.03,.18-.05,.35-.08,.53-.17,.04-.35,.08-.52,.12-.52-.1-1.04-.04-1.56,.07-.84-.05-1.26-.59-1.53-1.3,.88-2.7,2.31-1.7,3.75-.55Z"/>
      <path class="cls-90" d="M47.2,15.98c1.3,.53,2.43,1.26,3.06,2.58-.12,.18-.25,.36-.37,.54-.41,.17-.84,.24-1.28,.2-1.14-.5-2.7-.62-2.31-2.52l.28-.37c.18-.19,.39-.33,.62-.43Z"/>
      <path class="cls-78" d="M15.13,38.86c-.34,0-.67,0-1.01,0,0,0,.12,0,.12,0-.78-1.24-.37-2.61-.4-3.93-.19-.42-.12-.79,.22-1.11,.55-.44,1.07-.41,1.57,.09,.95,1.77,1.1,3.46-.51,4.96Z"/>
      <path class="cls-92" d="M21.23,56.8l1.51-.2c.75-.64,1.56-.61,2.41-.23,.35,.28,.56,.63,.66,1.06,0,.44-.16,.82-.49,1.13-1.52-.22-2.99-.53-4.08-1.76Z"/>
      <path class="cls-60" d="M15.15,33.72c-.36,.03-.72,.06-1.08,.09,.03-1.67-.03-3.35,.6-4.95,.24,.37,.48,.75,.73,1.12,.99,1.32,1,2.57-.25,3.74Z"/>
      <path class="cls-24" d="M20.54,13.87l1.81,.77c.38-.17,.7-.1,.98,.21l-.12-.07c.69,.68,.63,1.5-.09,1.92-.73,.43-1.44-.05-1.83-.83-.44-.04-.89-.09-1.33-.13,.2-.62,.39-1.23,.59-1.85Z"/>
      <path class="cls-53" d="M59.39,11.69c-.34,.29-.69,.59-1.03,.88-.18,.53-.51,.62-.96,.33-.33-.35-.65-.7-.98-1.04,.92-1.43,1.9-1.5,2.97-.16Z"/>
      <path class="cls-37" d="M36.39,13.82c-.7-.04-1.4-.08-2.1-.12,1.02-1.29,2.51-.89,3.84-1.09,0,0,.16,.21,.16,.21,.31,.41,.29,.81-.02,1.2-.67,.34-1.31,.36-1.88-.2Z"/>
      <path class="cls-57" d="M52.1,21.96c.33-.04,.67-.09,1-.13,.69,.82,1.4,1.62,1.39,2.79-.2,.14-.39,.27-.59,.41-1.71-.37-2.54-1.26-1.8-3.07Z"/>
      <path class="cls-60" d="M13.85,34.92c.63,1.26,.3,2.62,.4,3.93-1.11-1.21-.81-2.56-.4-3.93Z"/>
      <path class="cls-59" d="M56.4,42.97c.13,1.14-.01,2.17-1.11,2.83-.32,.35-.69,.43-1.12,.22-.24-.38-.34-.79-.31-1.23,.21-.86,.59-1.63,1.27-2.23,.42-.19,.81-.15,1.15,.18l.12,.24Z"/>
      <path class="cls-61" d="M14.23,47.05c.03-.36,.06-.71,.09-1.07,.14-.15,.29-.29,.43-.44,.42,.01,.81,.14,1.16,.37,.32,.28,.58,.61,.78,.98,.14,.4,.19,.82,.15,1.24-.13,.42-.38,.73-.79,.9-.61-.66-1.21-1.32-1.82-1.98Z"/>
      <path class="cls-86" d="M47.96,51.59c.54,.09,1.08,.19,1.62,.28-.94,.91-2.08,1.44-3.35,1.72-.32-.33-.44-.73-.38-1.19,.44-.95,1.11-1.31,2.11-.82Z"/>
      <path class="cls-67" d="M25.31,58.55c.02-.26,.01-.51-.03-.77,.8-.92,1.84-1.01,2.95-.83,.42,.11,.8,.3,1.14,.58,.25,.41,.2,.78-.15,1.11-1.31,.23-2.62,.32-3.92-.09Z"/>
      <path class="cls-51" d="M29.23,58.64c0-.22,0-.43-.04-.65,.62-.75,1.34-.82,2.13-.27,.38,.06,.76,.11,1.14,.17-.97,.7-2.03,1.03-3.23,.75Z"/>
      <path class="cls-100" d="M19.03,52.81c-.42,0-.85,0-1.28,0-.63-.5-.69-1.22-.77-1.94,.38-.34,.82-.47,1.32-.38,.8,.6,1.6,1.2,.72,2.33Z"/>
      <path class="cls-76" d="M18.06,50.76c-.36,.03-.72,.07-1.08,.1-.68-.42-.85-1.11-.94-1.84,.13-.16,.27-.3,.44-.42,.34-.19,.68-.2,1.04-.04,.47,.33,.79,.77,.97,1.31,.06,.39-.09,.69-.43,.89Z"/>
      <path class="cls-55" d="M17.18,24.77c-.38-.03-.75-.06-1.13-.09,.05-.74,.11-1.48,.8-1.95,.41-.34,.86-.43,1.35-.23,.63,1.2,.02,1.83-1.03,2.26Z"/>
      <path class="cls-44" d="M51.26,18.97c.28,.58,.55,1.16,.83,1.73-1.87,.75-2.49,.22-1.73-1.7,.13-.18,.1-.32-.09-.44,.33,.14,.66,.27,.99,.41Z"/>
      <path class="cls-56" d="M64.11,12.73c-.43-.02-.87-.04-1.31-.06,.53-1.11,1.49-.86,2.41-.75,0,0-.06-.07-.06-.07-.35,.3-.69,.59-1.04,.89Z"/>
      <path class="cls-96" d="M55.36,18.85c-.34-.3-.68-.6-1.03-.9,.26-.19,.54-.27,.86-.23,.33,.3,.67,.6,1,.9-.25,.18-.53,.26-.84,.24Z"/>
      <path class="cls-65" d="M18.02,22.74c-.39,0-.77,0-1.16-.01,.23-.63,.47-1.26,.7-1.89,.26,.33,.52,.66,.78,.99,.23,.42,.14,.73-.32,.91Z"/>
      <path class="cls-71" d="M55.67,26.73c-.38,.02-.75,.04-1.13,.07-.77-.42-.81-1.05-.51-1.78,.11-.19,.26-.32,.46-.39,.96,.39,.88,1.35,1.18,2.11Z"/>
      <path class="cls-40" d="M8.48,45.7c-.35,.02-.69,.04-1.04,.06-.36-.65-.29-1.3,.04-1.94,.37,0,.74,.01,1.12,.02,.39,.65,.3,1.26-.12,1.86Z"/>
      <path class="cls-41" d="M46.25,52.4c0,.4-.01,.8-.02,1.2-.28,.19-.58,.26-.92,.22-.36-.25-.72-.5-1.07-.75,.47-.82,1.17-.93,2-.67Z"/>
      <path class="cls-68" d="M54.42,45.78c.29,.03,.59,.03,.88,0,.07,.35-.02,.67-.26,.93-.41,0-.83-.01-1.24-.02,.03-.43,.24-.73,.62-.92Z"/>
      <path class="cls-31" d="M47.2,15.98c-.12,.3-.33,.44-.63,.43-.1-.3-.18-.6-.25-.9,.29,.16,.58,.31,.87,.47Z"/>
      <path class="cls-6" d="M54.42,45.78c-.21,.31-.41,.61-.62,.92-1.95,1.63-3.89,3.26-5.84,4.89-.67,.06-1.35,.08-1.71,.8-.67,.22-1.33,.45-2,.67-1.64,.57-3.53,.29-4.97,1.51-1.69,.12-3.37,.24-5.06,.37-.63,0-1.25,0-1.87,0-.63,.41-1.31,.59-2.06,.51-3.3-.6-6.41-1.68-9.1-3.75-1.06-.84-1.87-1.91-2.77-2.9-.14-.16-.27-.33-.41-.49-.27-.33-.48-.69-.65-1.07-.37-.94-.95-1.81-1.09-2.85-.02-.2-.04-.4-.05-.6-.36-1.64-.72-3.28-1.08-4.92,0-1.71,.01-3.42,.02-5.14,.08-1.25,.16-2.5,.25-3.74,1.16-1.54,1.18-3.47,1.79-5.21,.28-.68,.56-1.35,.84-2.03,.26-.25,.37-.55,.32-.91,1.67-1.66,1.81-4.06,2.94-5.98,.92,.14,1.95,.47,1.92-1.08,.34-.11,.68-.21,1.02-.32,4.11,.95,8.17,.86,12.16-.63,.61-.1,1.23-.19,1.84-.29,.4-.22,.78-.46,1.16-.71l.99-.34c.39,.32,.5,.88,.93,1.17,2.1,.35,3.11,2.43,5,3.13,.69,.96,1.65,1.57,2.69,2.06,.43,3.11-.01,3.67-3.69,4.67-.48,.58-1.42-2.15-1.68,.24-.42,.47-1,.7-1.47,1.09-.93,.52-1.68,1.4-2.85,1.4-1.66-.19-3.33-.51-4.92,.36-2.41,1.25-3.86,3.9-6.61,4.58-.21,.09-.62,.11-.69,.27-.14,.33-.03,.3,.29-.02,.47-.47-.2,.2,.39-.18,4.61-1.49,5.48-.71,4.63,4.11,2.75,.17,5.52,.72,8-1,.99-.6,1.36-1.3,.33-2.22-.46-.49-.8-1.03-.99-1.68-.17-1.58,.46-2.62,2.03-3.03,1.3,.14,2.37,.75,3.26,1.68,.38,.33,.72,.72,1.06,1.07-.01-.02,.14,.32,.14,.32,0,0,.27-.26,.24-.28-.3-.1-.51-.27-.65-.53-.33-.39-.73-.67-1.09-1-.68-.69-1.56-1.03-2.41-1.42-2.13-.97-.96-1.78,.13-2.59,.55-.39,1.19-.51,1.81-.72,.67-.11,1.33-.07,1.99,.09,.81,.16,1.62,.5,2.39-.08,.14-.37,.26-.74,.33-1.14,.58-2.07,1.7-2.06,3.14-.81,0,0,.03-.07,.03-.07,.46,1.13,.96,2.24,1.92,3.05,.17,.59,.34,1.19,.51,1.78,.58,1.65,.37,3.53,1.55,4.99,0,1.92,0,3.83,0,5.75-.15,.47-.46,.67-.95,.55-1.39-.96-2.8-1.33-4.28-.22-.07,.39-.18,.78-.3,1.13-.07,.32-.18,.52-.3,.58,.51-.38,.51-1,.68-1.55,.24-.41,.58-.64,1.03-.73,2.49-.28,3.37,1.01,3.23,3.3,.05,1.09-1,1.97-.59,3.13,.09,.42,.03,.83-.18,1.21-.09,.28-.09,.56,0,.85Z"/>
      <path class="cls-27" d="M8.48,45.7c.04-.62,.08-1.24,.12-1.86,1.95-.04,4.03-.84,5.7,.9,.28,.21,.36,.39,.25,.57-.11,.16-.21,.25-.32,.25,0,0,.09,.42,.09,.42-1.91-.77-3.91,.16-5.84-.28Z"/>
      <path class="cls-4" d="M14.23,45.56c.05-.27,.07-.54,.07-.81,.32,0,.65-.01,.97-.02,0,0,.29,.29,.29,.29,0,0,0,.41,0,.41,0,0-.28,.31-.28,.31-.35-.06-.7-.12-1.05-.18Z"/>
      <path class="cls-39" d="M15.27,44.72c.12-.5,.4-.85,.94-.95,0,0,.08-.01,.08-.01,.33,1.03-.13,1.27-1.05,1.05l.03-.1Z"/>
      <path class="cls-93" d="M41.3,13.66c-.73-.06-.87-.58-.93-1.17,1.42-.49,.74,.68,.93,1.17Z"/>
      <path class="cls-93" d="M39.39,12.82c-.23,.49-.56,.82-1.16,.71-.02-.24,0-.48,.06-.71,.36,0,.73,0,1.09,0Z"/>
      <path class="cls-26" d="M57.39,12.9c.32-.11,.64-.22,.96-.33,.32,.33,.93,.7,.08,1.03-.51,.2-.96-.08-1.04-.7Z"/>
      <path class="cls-85" d="M55.5,37.49c.2-.03,.39-.01,.58,.04,.07,1.73,.13,3.46,.2,5.19-.37,.03-.75,.06-1.12,.09-.17,.41-.47,.68-.88,.83-1.12-.39-1.32-1.02-.48-1.9,2.07-.82,.06-3.27,1.7-4.26Z"/>
      <path class="cls-14" d="M31.31,57.72c-.71,.09-1.42,.18-2.13,.27,0,0,.08-.31,.08-.31-.69-.69-2.53-.18-2.13-2.02,.34-.32,.74-.55,1.2-.68,.97-.18,1.83,.28,2.75,.42,.29,.21,.44,.45,.42,.73-.01,.3-.06,.45-.13,.45l-.07,1.13Z"/>
      <path class="cls-2" d="M31.42,55.93c-1.01-.09-2.02-.18-3.02-.28-.1-1.97,1.08-1.26,2.05-.98,.63,.09,1.26,.18,1.89,.27-.12,.26-.11,.52,0,.78-.23,.41-.53,.5-.92,.21Z"/>
      <path class="cls-6" d="M31.42,55.93c.32,0,.63-.07,.92-.21,.24,.91-.49,.74-.96,.87,.09-.22,.1-.44,.04-.66Z"/>
      <path class="cls-29" d="M18.06,50.76c.07-.33,.14-.65,.21-.98,.21-.08,.43-.17,.64-.25,.68,.2,1.21,.63,1.69,1.14,1.41,2.45,4.53,3.04,5.95,5.48-.25,.73-.61,1.28-1.51,.83-.77-.13-1.54-.26-2.31-.39-1.23-1.26-2.47-2.52-3.7-3.78-.32-.68-.65-1.37-.97-2.05Z"/>
      <path class="cls-34" d="M44.27,22.79c2.41-.31,4.77-.69,4.72-3.94,.45,.05,.91,.1,1.36,.15,.02,1.14,.57,1.74,1.73,1.71,0,.44-.01,.88-.02,1.32-1.83-.72-2.73-.39-1.98,1.78-.28,.3-.59,.55-.95,.75-.58,.2-1.18,.3-1.76,.5-.42,.13-.78,.02-1.08-.29-.67-.1-1.35-.2-2.02-.3-.32-.18-.49-.45-.47-.83,0-.37,.17-.65,.47-.85Z"/>
      <path class="cls-6" d="M23.33,14.85c-.33-.07-.65-.14-.98-.21,.44-.48,.76-.38,.98,.21Z"/>
      <path class="cls-17" d="M25.04,56.98c.39-.36,.79-.71,1.18-1.07,.32-.33,.66-.34,1.01-.04,.68,.6,1.36,1.21,2.04,1.81-1.33,.03-2.66,.06-3.99,.1-.04-.28-.12-.55-.24-.8Z"/>
      <path class="cls-21" d="M54.28,43.65c.05-.54,.4-.75,.88-.83,.07,.82,.13,1.63-.74,2.12-.05-.43-.09-.86-.14-1.29Z"/>
      <path class="cls-88" d="M17.45,48.8c-.32-.06-.64-.13-.96-.19-.1-.65-.21-1.29-.31-1.94,.17-.1,.34-.2,.5-.3,.41,0,.74,.16,1.01,.48,.15,.36,.38,.68,.68,.93l.02-.14c.22,.38,.28,.78,.13,1.21-.37,.3-.73,.3-1.07-.04Z"/>
      <path class="cls-30" d="M16.17,46.67c-.62,0-.93-.3-.89-.94,0,0-.05,.03-.05,.03,.87-.31,1.16-.05,.83,.84l.11,.07Z"/>
      <path class="cls-20" d="M17.45,48.8c.25,0,.51,.03,.76,.07,.29,.2,.39,.4,.31,.62-.08,.22-.17,.33-.26,.33,0,0,.02-.04,.02-.04-.7,.03-.83-.42-.83-.98Z"/>
      <path class="cls-97" d="M27.33,30.93c2.84-1.02,3.29-4.96,6.61-5.38,1.41-.36,1.57,.39,1.33,1.5-.75,1.4-.86,2.93-.84,4.49,0,.68-.06,1.36-.18,2.04-.09,.46-.26,.89-.47,1.31-.39,.61-.97,.98-1.63,1.25-.46-.04-.92-.1-1.37-.18-.48,.27-1.06,.35-1.1-.31-.06-1.02,1.22-.91,1.64-1.64,.41-.72,1.02-1.36,.39-2.22-.55-.75-1.32-1.02-2.18-.69-.77,.29-1.48,.74-2.21,1.12-.44-.42-.43-.85,0-1.27Z"/>
      <path class="cls-75" d="M30.79,35.94c.5-.06,.99-.11,1.49-.17,.32-.32,.65-.63,.98-.94,.07-.45,.13-.89,.2-1.34,.36-.11,.69-.07,1,.14,.24,.42,.47,.87,1.01,.25,.42-.42,.9-.71,1.44-.94,1.26-.39,2.5-.95,3.83-.28,.76,.66,1.21,1.42,.68,2.44-3.33,2.89-6.93,2.42-10.62,.84Z"/>
      <path class="cls-23" d="M27.23,55.88c-.34,.01-.67,.02-1.01,.04-2.75-.83-5.01-2.24-5.99-5.13,.38-.47,.81-.52,1.28-.16,2.73,1.9,5.88,2.86,8.93,4.05-.68,.32-1.6,.17-2.05,.98-.39,.08-.78,.15-1.17,.23Z"/>
      <path class="cls-94" d="M34.1,26.92c1.02-.58,.53-.99-.16-1.37,1.79-1.37,3.59-1.19,5.38,0,.71,.83,.93,1.76,.51,2.8-.31,.74-.92,1-1.66,1.03-.41-.04-.79-.22-1.1-.48-.38-.14,.37-1.07-.57-.84-.34,.59,.3,.92,.36,1.42,.05,.67-.16,1.23-.67,1.68-.43,.18-.87,.24-1.34,.19-.47-.14-.81-.44-1.01-.89-.03-1.18-.27-2.38,.25-3.53Z"/>
      <path class="cls-33" d="M39.06,28.98c.09-1.15,.17-2.29,.26-3.44,.96-.31,1.91-.62,2.87-.93,0,0,.25,.27,.25,.27-.26,.87-.9,1.86,.7,2.11,.2,.86,.08,1.36-.96,.89-1.72,.25-1.99,1.43-1.84,2.87-.45,.52-1.01,.63-1.65,.49-.39-.18-.63-.48-.72-.91,.07-.69,.55-1.06,1.09-1.37Z"/>
      <path class="cls-5" d="M26,24.56c0,.89-.39,1.54-1.24,1.78-.69,.2-1.24-.11-1.41-.85-.26-1.12,.25-1.91,1.33-2.08,.63-.1,1.1,.5,1.32,1.15Z"/>
      <path class="cls-63" d="M55.5,37.49c-.56,1.42,.56,3.51-1.7,4.26q.78-3.69-2.2-3.89c-.36,.39-.71,.38-1.04-.04,1.53-1.94,3.18-1.9,4.94-.32Z"/>
      <path class="cls-28" d="M44.27,22.79c0,.38,.01,.76,.02,1.13-.55,.36-.9,.22-1.03-.43-.08-.31-.16-.62-.24-.93-.21-.85-1.16-1.73-.05-2.56,.54-.4,1.26-.39,1.73,.17,.81,.99-.16,1.75-.43,2.61Z"/>
      <path class="cls-42" d="M41.41,35.1c-.4-.82-.79-1.64-1.19-2.46-.26-.37-.24-.74,0-1.1,.41-.16,.78-.1,1.1,.22q2.76,1.58,.08,3.35Z"/>
      <path class="cls-82" d="M27.33,30.93c0,.42,0,.84,0,1.27-.63,1.14-1.45,2.05-3.04,2.52,.03-2.22,1.54-3.01,3.05-3.79Z"/>
      <path class="cls-73" d="M51.17,38.74c-.28,1.25-.56,2.5-1.04,4.63-1.14-2.26-1.3-3.47-.02-4.63,.35-.36,.7-.37,1.05,0Z"/>
      <path class="cls-7" d="M29.69,43.78c-.78,.36-1.56,.73-2.33,1.09-.44-.21-.74-.55-.92-1,1.58-2.01,3.2-1.8,4.84-.1-.15,.14-.29,.29-.44,.44-.37-.19-.75-.33-1.15-.42Z"/>
      <path class="cls-66" d="M26.44,43.86c.31,.33,.62,.67,.92,1,.29,1,.58,1.99,.87,2.99,.31,.23,.42,.47,.32,.71-.1,.24-.2,.37-.3,.37-1.92-1.22-2.51-2.92-1.82-5.07Z"/>
      <path class="cls-52" d="M21.52,50.62c-.43,.05-.86,.11-1.28,.16-.75-.13-1.08-1.13-1.98-.96,.09-.32,.07-.64-.05-.95,.06-.41,.12-.82,.19-1.23,1.35,.67,2.27,1.8,3.13,2.98Z"/>
      <path class="cls-84" d="M16.06,46.6c-.05-.51-.37-.74-.83-.84,.03-.32,.04-.63,0-.95,.35-.35,.7-.7,1.05-1.05,1,.8,1.46,1.92,1.84,3.08-.22,0-.44,0-.66,0-.47-.08-.94-.16-1.41-.25Z"/>
      <path class="cls-46" d="M42.18,27.89c.32-.3,.64-.6,.96-.89,.99,.07,1.75,.51,2.19,1.42,.3,.44,.28,.88-.02,1.31-1.04-.61-2.09-1.22-3.13-1.84Z"/>
      <path class="cls-82" d="M35.21,21.86c.58,.32,1.94-.46,1.74,.81-.23,1.47-1.55,1.3-2.7,1.03-.51-1.05,.12-1.5,.96-1.85Z"/>
      <path class="cls-38" d="M35.21,21.86c-.32,.62-.64,1.23-.96,1.85,0,0-.48,.14-.48,.14l-.5-.04c-.47-.38-.55-.83-.25-1.35-.07-.9-.16-1.81,1.22-1.62,.35,.29,.67,.62,.95,.99v.03Z"/>
      <path class="cls-99" d="M46.3,24.77c.41-.02,.82-.05,1.23-.07,.45-.47,1.04-.39,1.6-.4,.4,0,.74,.13,1,.44-1.26,1.92-2.54,1.53-3.83,.03Z"/>
      <path class="cls-11" d="M32.47,45.54c.59,.76,1.36,1.64,.11,2.31-.61,.33-1.1-.41-1.19-1.12,.35-.41,.42-1.06,1.08-1.19Z"/>
      <path class="cls-73" d="M32.47,45.54l-1.08,1.19-.15-1.39c-.11-.37-.17-.75-.18-1.13l.22-.44c.71,.38,1.08,.99,1.19,1.77Z"/>
      <path class="cls-36" d="M41.32,31.76c-.36,.01-.73,.02-1.09,.03-.56,.54-1.19,.61-1.88,.25-.3-.4-.31-.82-.04-1.24,.68-.01,1.35-.03,2.03-.04l.98,.99Z"/>
      <path class="cls-48" d="M33.03,22.46c.08,.45,.17,.9,.25,1.35-.53,.88-1.3,.53-1.55,0-.6-1.28,.66-1.08,1.3-1.34Z"/>
      <path class="cls-91" d="M28.34,22.99c-.1-.51-.39-.13-.93-.06-.27,.03-.73-.14-.84-.35-.25-.48,0-.95,.46-1.19,.51-.26,.91-.06,1.3,1.6Z"/>
      <path class="cls-3" d="M40.09,20.88c-.63,.14-.85-.28-.93-.75-.08-.5,.16-.92,.7-.97,.56-.06,.82,.38,.98,.84,.25,.71-.36,.71-.75,.89Z"/>
      <path class="cls-70" d="M43.26,23.5c.34,.14,.69,.28,1.03,.43-.03,.18-.04,.36-.03,.54-.56,.36-1.16,.57-1.84,.41,0,0-.24-.27-.25-.27-.01-.73,.58-.87,1.08-1.11Z"/>
      <path class="cls-70" d="M45.3,29.72c0-.44,.02-.87,.02-1.31,.52,.26,1,.54,.99,1.23,.11,.16,.22,.32,.34,.48-.1,.17-.2,.34-.31,.5-.35-.3-.69-.61-1.04-.91Z"/>
      <path class="cls-89" d="M47.51,30.72c.51,.18,.86,.59,.22,.85-.67,.27-1.15-.29-1.39-.94l.14-.29c.35,.12,.69,.24,1.03,.38Z"/>
      <path class="cls-79" d="M28.26,48.94c0-.36-.01-.72-.02-1.08,.6,.31,1.18,.82,.81,1.45-.35,.59-.7,.17-.79-.37Z"/>
      <path class="cls-16" d="M45.01,48.2c-.1,.1-.19,.19-.29,.29-.09-.1-.25-.2-.25-.3,0-.1,.17-.19,.27-.29,.09,.1,.18,.2,.27,.3Z"/>
      <path class="cls-69" d="M17.47,46.85c.22,.04,.44,.04,.66,0,.26,.26,.34,.57,.24,.93-.45-.16-.9-.33-.9-.93Z"/>
      <path class="cls-43" d="M31.06,44.2c.06,.38,.12,.75,.18,1.13-.52-.52-1.03-1.04-1.55-1.56,.45,.14,.91,.28,1.37,.42Z"/>
      <path class="cls-95" d="M51.17,38.74c-.35,0-.7,0-1.05,0,.15-.31,.29-.62,.44-.93,.35,.01,.69,.03,1.04,.04-.06,.34-.2,.63-.43,.89Z"/>
      <path class="cls-22" d="M47.51,30.72c-.34-.13-.69-.25-1.03-.38-.07-.23-.12-.46-.16-.7,.69,.04,1.07,.41,1.19,1.08Z"/>
      <path class="cls-72" d="M50.12,24.74l-.48-.03-.48,.04c-.25-.25-.32-.48-.2-.69,.11-.19,.22-.29,.32-.29,.27,.06,.54,.07,.81,.03,.01,.31,.02,.62,.04,.93Z"/>
      <path class="cls-82" d="M35.2,21.82c-.56-.1-.78-.52-.95-.99,.75-.09,1.02,.29,.95,.99Z"/>
      <path class="cls-50" d="M49.28,23.77c0,.33-.03,.66-.12,.98-.55-.02-1.09-.04-1.63-.06,.22-1,1.1-.75,1.76-.92Z"/>
      <path class="cls-19" d="M34.1,26.92c.08,1.26,.17,2.52,.25,3.79,.32,.85-.07,1.07-.85,.95,.1-1.59-.98-3.33,.6-4.74Z"/>
      <path class="cls-15" d="M33.5,31.66c.28-.32,.57-.64,.85-.95,.27,.06,.55,.08,.83,.07,.65,.48,.74,1.13,.57,1.86-.32,.68-.86,1.09-1.6,1.24-.28-.06-.51-.19-.7-.39,.02-.61,.03-1.22,.05-1.84Z"/>
      <path class="cls-98" d="M33.26,34.83c-.33,.31-.65,.63-.98,.94,.33-.31,.65-.63,.98-.94Z"/>
      <path class="cls-18" d="M38.21,31.44c.67,.11,1.35,.23,2.02,.34-.03,.29-.03,.57-.01,.86-1.12,.98-2.39,1.45-3.88,1.04-1.01-2.11,.08-2.47,1.87-2.24Z"/>
      <path class="cls-32" d="M38.21,31.44c-1.14,.31-2.06,.82-1.87,2.24-.28,.35-.55,.71-.83,1.06-.9-.44-.7-1.14-.44-1.85,.04-.7,.08-1.41,.12-2.11,.4-.03,.8-.06,1.19-.09,.68-.51,1.32-.53,1.93,.12,0,0,0,0,0,0-.1,.2-.13,.42-.1,.64Z"/>
      <path class="cls-25" d="M35.06,32.89c.15,.62,.29,1.23,.44,1.85q-.98,.8-1.35-.86c.3-.33,.6-.66,.9-.99Z"/>
      <path class="cls-13" d="M38.31,30.81c-.64-.04-1.29-.08-1.93-.12,0-.61,0-1.22,0-1.83,.18-.43,.45-.53,.84-.24,.62,.12,1.23,.24,1.85,.35-.25,.61-.5,1.22-.75,1.83Z"/>
      <path class="cls-9" d="M36.32,27.74c-.03-.79,.09-1.84,1.05-1.53,1.11,.36,.42,1.14-.15,1.67-.36,.35-.66,.32-.9-.14Z"/>
      <path class="cls-62" d="M36.32,27.74c.3,.08,.6,.13,.9,.14,.05,.25,.05,.5,0,.75-.28,.08-.56,.16-.84,.24-.78-.33-.97-.7-.07-1.13Z"/>
    </g>
  </g>
</svg>