<?xml version="1.0" encoding="UTF-8"?>
<svg id="Layer_2" data-name="Layer 2" xmlns="http://www.w3.org/2000/svg" viewBox="0 0 23.78 14.71">
  <defs>
    <style>
      .cls-1 {
        fill: #eaf5fb;
      }

      .cls-2 {
        fill: #e9f5fb;
      }

      .cls-3 {
        fill: #edf6fc;
      }

      .cls-4 {
        fill: #e2f1f9;
      }

      .cls-5 {
        fill: #eef7fc;
      }

      .cls-6 {
        fill: #eff7fc;
      }
    </style>
  </defs>
  <g id="Layer_1-2" data-name="Layer 1">
    <g>
      <path class="cls-3" d="M11.29,14.67c-1.32,0-2.65,.09-3.96-.02-1.95-.17-2.57-1.36-1.63-2.95,1.99-3.36,9.55-3.73,11.92-.56,.51,.69,.71,1.52,.51,2.35-.3,1.29-1.42,1.16-2.38,1.18-1.49,.03-2.97,0-4.46,0Z"/>
      <path class="cls-6" d="M12.09,6.91c-1.9,.12-3.59-1.29-3.77-3.13C8.14,2.05,9.74,.18,11.52,.01c1.76-.17,3.5,1.36,3.68,3.24,.19,2-1.11,3.52-3.11,3.65Z"/>
      <path class="cls-4" d="M21.89,5.47c-.14,1.84-1.84,3.36-3.43,3.08-1.19-.21-2.44-.86-1.85-2.31,.54-1.33-.03-3.72,2.58-3.54,1.77,.13,2.58,1.27,2.71,2.77Z"/>
      <path class="cls-5" d="M5.38,2.78c1.27,.67,1.5,2.38,1.61,3.91,.11,1.45-1.19,1.88-2.41,1.81-1.74-.11-2.9-1.83-2.55-3.56,.29-1.42,1.51-2.39,3.35-2.16Z"/>
      <path class="cls-1" d="M20.47,10.65c2.23,.35,3.42,1.1,3.3,2.92-.07,1.06-1.1,1.19-1.89,1.04-2.53-.49-1.69-2.24-1.41-3.96Z"/>
      <path class="cls-2" d="M1.31,14.64c-.69,0-1.33-.46-1.31-1.39,.04-1.5,1-2.32,2.42-2.5,.71-.09,1.22,.33,1.02,1.15-.27,1.16,.1,2.77-2.14,2.74Z"/>
    </g>
  </g>
</svg>