<?xml version="1.0" encoding="UTF-8"?>
<svg id="Layer_2" data-name="Layer 2" xmlns="http://www.w3.org/2000/svg" viewBox="0 0 36.08 36.08">
  <defs>
    <style>
      .cls-1 {
        fill: #fcfdfe;
      }

      .cls-2 {
        fill: #fdfeff;
      }
    </style>
  </defs>
  <g id="Layer_1-2" data-name="Layer 1">
    <g>
      <path class="cls-2" d="M16.02,10.24c0,2.33-.09,4.67,.03,6.99,.11,2.22-.91,2.9-2.97,2.85-3.49-.09-6.99-.05-10.49-.02-1.52,.01-2.57-.33-2.56-2.16,.03-5.16,.02-10.32,0-15.48C0,.73,.76,.03,2.43,.05c3.66,.05,7.33,.06,10.99-.01,1.94-.04,2.66,.84,2.61,2.71-.07,2.5-.02,4.99-.02,7.49Z"/>
      <path class="cls-2" d="M36.02,26.24c0,2.33-.09,4.67,.03,6.99,.11,2.22-.91,2.9-2.97,2.85-3.49-.09-6.99-.05-10.49-.02-1.52,.01-2.57-.33-2.56-2.16,.03-5.16,.02-10.32,0-15.48,0-1.67,.74-2.38,2.42-2.36,3.66,.05,7.33,.06,10.99-.01,1.94-.04,2.66,.84,2.61,2.71-.07,2.5-.02,4.99-.02,7.49Z"/>
      <path class="cls-1" d="M28.01,12.06c-9.41-.25-7.85,1.79-7.98-8.23-.05-3.7,.08-3.73,3.97-3.78,2.83-.04,5.67,.1,8.49-.04,2.44-.12,3.82,.52,3.56,3.3-.17,1.82-.13,3.67,0,5.49,.15,2.26-.55,3.48-3.05,3.28-1.66-.13-3.33-.02-5-.02Z"/>
      <path class="cls-1" d="M7.91,36.06C-1.42,35.79,.16,37.88,.03,27.74c-.05-3.58,.09-3.62,3.56-3.68,3.33-.06,6.66,.02,9.99-.01,1.64-.02,2.51,.64,2.43,2.35-.02,.33,.02,.67,.01,1-.17,10.55,1.4,8.4-8.11,8.66Z"/>
    </g>
  </g>
</svg>