<?xml version="1.0" encoding="UTF-8"?>
<svg id="Layer_2" data-name="Layer 2" xmlns="http://www.w3.org/2000/svg" viewBox="0 0 22.07 17.96">
  <defs>
    <style>
      .cls-1 {
        fill: #464646;
      }

      .cls-2 {
        fill: #4a4a4a;
      }

      .cls-3 {
        fill: #4b4b4b;
      }
    </style>
  </defs>
  <g id="Layer_1-2" data-name="Layer 1">
    <g>
      <path class="cls-3" d="M11.88,14.38C6.96,15.32,1.99,12.9,.31,8.89c-.42-1-.45-1.92,.11-2.84C2.76,2.21,6.22,.02,10.66,0c4.63-.02,8.27,2.11,10.55,6.3,.42,.78,.71,1.68-.15,2.19-.96,.57-1.33-.35-1.82-1.04C14.86,1.23,8.46,.37,3.75,5.22c-1.57,1.61-1.81,2.98-.11,4.63,1.6,1.55,3.35,2.66,5.59,2.98,.9,.13,2.07-.23,2.64,1.55Z"/>
      <path class="cls-1" d="M13.83,7.34c.07,1.67-1.55,3.43-3.1,3.26-1.62-.17-2.73-1.05-2.83-2.83-.11-1.85,1.16-3.16,3-3.08,1.76,.07,2.62,1.12,2.94,2.65Z"/>
      <path class="cls-2" d="M18.28,17.96c-2.13-.24-1.04-2.82-3.15-3.01-1.89-.17-1.63-1.74-.05-1.88,2.14-.19,1.18-2.62,3.12-3.1,.76,1.51,1.23,3.59,3.86,3.73-1.86,1.2-3.36,2.38-3.79,4.26Z"/>
    </g>
  </g>
</svg>