<?xml version="1.0" encoding="UTF-8"?>
<svg id="Layer_2" data-name="Layer 2" xmlns="http://www.w3.org/2000/svg" viewBox="0 0 18.17 20.12">
  <defs>
    <style>
      .cls-1 {
        fill: #f0f0f0;
      }

      .cls-2 {
        fill: #535353;
      }

      .cls-3 {
        fill: #555;
      }

      .cls-4 {
        fill: #565656;
      }

      .cls-5 {
        fill: #393939;
      }

      .cls-6 {
        fill: #515151;
      }
    </style>
  </defs>
  <g id="Layer_1-2" data-name="Layer 1">
    <g>
      <path class="cls-4" d="M12.27,8.87c1.28-1.67,.83-3.17-.04-4.95-.71-1.47,.08-2.97,1.68-3.65,1.66-.7,2.88,.09,3.78,1.46,.75,1.13,.57,2.32-.31,3.2-1.52,1.51-2.15,3.78-4.17,4.84-.44-.17-.76-.47-.95-.9Z"/>
      <path class="cls-2" d="M3.17,7.91c-.84-.98-1.76-1.9-2.5-2.95C-.28,3.62-.24,2.18,.93,.97,1.93-.06,3.18-.36,4.47,.51c1.55,1.04,2.2,2.38,1.13,4.15-.42,.69-.84,1.39-1.26,2.08,.38,1.14-.15,1.39-1.16,1.17Z"/>
      <path class="cls-6" d="M10.41,13.19c.04,.85,.48,1.49,1,2.13,1.11,1.37,.85,2.74-.3,3.92-1.03,1.06-2.33,1.09-3.57,.44-1.56-.83-1.72-2.25-1.23-3.77,.13-.41,.6-.71,.91-1.06,.62-.62,.68-1.28,.13-1.97-.2-.28-.39-.57-.59-.85,.51-.55,1.1-.64,1.75-.27,.21-.07,.41-.06,.61,.04,1.14-.19,1.63,.21,1.28,1.39Z"/>
      <path class="cls-3" d="M8.52,11.76c-.58,.09-1.17,.18-1.75,.27-1.46-1.15-2.76-2.44-3.6-4.12,.39-.39,.77-.78,1.16-1.17,1.4,1.67,2.8,3.35,4.19,5.02Z"/>
      <path class="cls-3" d="M10.41,13.19c-.43-.46-.86-.93-1.28-1.39,.73-.63,1.47-1.27,2.2-1.9,0,0,.45,.15,.45,.15,0,0,.33,.34,.34,.34,0,0,.13,.46,.13,.46-.34,1-1.03,1.72-1.84,2.35Z"/>
      <path class="cls-5" d="M12.27,8.87c.32,.3,.64,.6,.95,.9-.32,.36-.64,.71-.97,1.07l-.17-.44-.34-.34-.41-.16c.31-.34,.62-.69,.94-1.03Z"/>
      <path class="cls-3" d="M7.36,12.89c.98,.73,.91,1.38-.13,1.97,.04-.66,.09-1.32,.13-1.97Z"/>
      <path class="cls-1" d="M15.65,3.22c-.19,.16-.36,.44-.56,.47-.57,.09-.76-.25-.64-.78,.09-.39,.33-.55,.64-.35,.22,.15,.37,.42,.57,.65Z"/>
      <path class="cls-1" d="M2.82,3.74c-.14-.22-.4-.45-.38-.65,.06-.48,.36-.81,.85-.42,.2,.16,.25,.51,.37,.78-.28,.1-.56,.19-.84,.29Z"/>
      <path class="cls-1" d="M9.69,17.37c-.26,.13-.54,.39-.77,.35-.58-.09-.58-.53-.39-.98,.13-.32,.43-.41,.72-.14,.21,.19,.3,.51,.45,.77Z"/>
      <path class="cls-5" d="M11.74,10.06c.18,.05,.29,.17,.34,.35,0,0-.34,0-.34,0v-.35Z"/>
    </g>
  </g>
</svg>