<?xml version="1.0" encoding="UTF-8"?>
<svg id="Layer_2" data-name="Layer 2" xmlns="http://www.w3.org/2000/svg" viewBox="0 0 17.07 16.06">
  <defs>
    <style>
      .cls-1 {
        fill: #fcfefe;
      }
    </style>
  </defs>
  <g id="Layer_1-2" data-name="Layer 1">
    <path class="cls-1" d="M8.64,10.01c-2.32,.08-1.93,1.65-2.03,2.91-.11,1.26,.29,2.71-1.68,3.04-2.32,.38-3.09-.28-3.37-2.8-.21-1.84,.96-4.03-1.31-5.42-.43-.26-.22-.86,.15-1.24,.23-.24,.44-.51,.69-.71C3.5,3.78,5.46,.02,8.25,0c3.33-.02,5.35,4,8.06,6.11,.95,.74,1.09,1.32-.08,2.21-1.18,.9-.48,2.47-.63,3.75-.19,1.65,.72,3.77-2.32,3.94-2.89,.16-2.76-1.6-2.71-3.49,.04-1.52-.36-2.65-1.94-2.51Z"/>
  </g>
</svg>