<?xml version="1.0" encoding="UTF-8"?>
<svg id="Layer_2" data-name="Layer 2" xmlns="http://www.w3.org/2000/svg" viewBox="0 0 18.73 21.41">
  <defs>
    <style>
      .cls-1 {
        fill: #fdfeff;
      }
    </style>
  </defs>
  <g id="Layer_1-2" data-name="Layer 1">
    <path class="cls-1" d="M14.34,1.87c-.63-.17-1.21-.54-1.83-.78-1.36-.54-2.65-1.56-4.24-.84C5.85,1.35,3.44,2.49,1.06,3.65c-.24,.11-.36,.53-.47,.83-1.9,5.14,.99,12.99,5.74,15.94,2.09,1.3,4.01,1.33,6.06,.01,4.33-2.8,5.99-6.94,6.16-12.61,.71-2.84-.74-5.01-4.21-5.95Zm-6.07,12.99c-.7,.75-1.55,.35-2.12-.31-.81-.96-2.28-1.47-2.21-3.02,.02-.5,.75-1.01,1.02-.75,3.14,3,4.42-.29,6.21-1.78,.98-.81,1.63-2.08,3.95-2.27-1.5,3.98-4.59,5.72-6.85,8.13Z"/>
  </g>
</svg>