<?xml version="1.0" encoding="UTF-8"?>
<svg id="Layer_2" data-name="Layer 2" xmlns="http://www.w3.org/2000/svg" viewBox="0 0 24.12 18.12">
  <defs>
    <style>
      .cls-1 {
        fill: #edf6fc;
      }

      .cls-2 {
        fill: #eef7fc;
      }

      .cls-3 {
        fill: #bee0f3;
      }

      .cls-4 {
        fill: #bbdef2;
      }

      .cls-5 {
        fill: #d1e9f6;
      }

      .cls-6 {
        fill: #2095d5;
      }

      .cls-7 {
        fill: #50acde;
      }
    </style>
  </defs>
  <g id="Layer_1-2" data-name="Layer 1">
    <g>
      <path class="cls-2" d="M6.5,6.77c-.04-1.54,1.03-2.52,2.46-2.6,1.56-.09,2.3,1.04,2.4,2.58-.16,1.58-1.05,2.37-2.64,2.24-1.33-.1-2.18-.93-2.22-2.22Z"/>
      <path class="cls-2" d="M13.92,13.67c-2.91,.74-5.7,.33-8.46,.32-.43,0-1.09-.08-1.08-.77,.01-.45,.08-1.05,.36-1.32,1.43-1.38,3.25-1.61,5.11-1.34,1.75,.25,3.67,.42,4.07,3.11Z"/>
      <path class="cls-2" d="M20.02,6.13c.03,.17,.05,.33,.05,.5-.24,1.13-1.13,1.22-2.03,1.29-1.27,1.61-2.54,1.83-3.81,0,.01-.35,.01-.7,.01-1.05-.11-.32-.11-.63,0-.94v-1.06c1.87-1.69,3.82-1.28,5.8-.22-.01,.49-.01,.99-.02,1.48Z"/>
      <path class="cls-2" d="M24.11,3.51C24.14,.94,22.8,0,20.39,0,14.74,.04,9.1,.05,3.46,0,.86-.02-.04,1.3,.01,3.73,.08,7.38,.11,11.03,0,14.68c-.07,2.65,1.2,3.51,3.65,3.43,2.82-.09,5.64-.02,8.46-.02,2.83-.01,5.65-.06,8.47,.01,2.57,.07,3.58-1.17,3.54-3.63-.06-3.65-.05-7.31-.01-10.96Zm-2.07,10.12c.03,1.68-.73,2.41-2.37,2.39-2.66-.03-5.31-.01-8.51-.01-2.52-.41-6.42,1.44-8.48-.86-1.79-2-.53-5.72-.56-8.67-.04-4.35,.04-4.37,4.32-4.4,4.31-.03,8.62,.04,12.93-.02,1.87-.03,2.73,.69,2.68,2.62-.07,2.98-.06,5.97-.01,8.95Z"/>
      <path class="cls-6" d="M6.5,6.77c-.04-1.54,1.03-2.52,2.46-2.6,1.56-.09,2.3,1.04,2.4,2.58-.16,1.58-1.05,2.37-2.64,2.24-1.33-.1-2.18-.93-2.22-2.22Z"/>
      <path class="cls-6" d="M13.92,13.67c-2.91,.74-5.7,.33-8.46,.32-.43,0-1.09-.08-1.08-.77,.01-.45,.08-1.05,.36-1.32,1.43-1.38,3.25-1.61,5.11-1.34,1.75,.25,3.67,.42,4.07,3.11Z"/>
      <path class="cls-6" d="M20.07,6.63c-.24,1.13-1.13,1.22-2.03,1.29-1.27,1.61-2.54,1.83-3.81,0,.01-.35,.01-.7,.01-1.05-.11-.32-.11-.63,0-.94v-1.06c1.87-1.69,3.82-1.28,5.8-.22-.01,.49-.01,.99-.02,1.48,.03,.17,.05,.33,.05,.5Z"/>
      <path class="cls-1" d="M13.92,13.67c-2.91,.74-5.7,.33-8.46,.32-.43,0-1.09-.08-1.08-.77,.01-.45,.08-1.05,.36-1.32,1.43-1.38,3.25-1.61,5.11-1.34,1.75,.25,3.67,.42,4.07,3.11Z"/>
      <path class="cls-5" d="M11.36,6.75c-.16,1.58-1.05,2.37-2.64,2.24-1.33-.1-2.18-.93-2.22-2.22-.04-1.54,1.03-2.52,2.46-2.6,1.56-.09,2.3,1.04,2.4,2.58Z"/>
      <path class="cls-3" d="M20.04,4.65c-.8,.86-1.62,1.29-2.45,1.4,0,0-.02-.01-.03,0-.32,.03-.64,.02-.96-.04-.78-.13-1.57-.54-2.36-1.14,1.87-1.69,3.82-1.28,5.8-.22Z"/>
      <path class="cls-7" d="M20.04,4.65c-.01,.49-.01,.99-.02,1.48-.4,.22-.79,.41-1.19,.55-1.02,.36-2.02,.45-3.01,.12-.53-.16-1.06-.45-1.58-.87v-1.06c1.93-.07,3.87-.14,5.8-.22Z"/>
      <path class="cls-3" d="M20.07,6.63c-1.91,1.08-3.82,1.76-5.83,.24-.11-.32-.11-.63,0-.94,.79,.03,1.58,.06,2.36,.08,.32,.01,.64,.02,.96,.04,.01-.01,.02,0,.03,0,.81,.02,1.62,.05,2.43,.08,.03,.17,.05,.33,.05,.5Z"/>
      <path class="cls-7" d="M20.07,6.63c-.24,1.13-1.13,1.22-2.03,1.29-1.27,.68-2.54,.69-3.81,0,.01-.35,.01-.7,.01-1.05,.53-.02,1.05-.04,1.58-.07,1-.04,2-.08,3.01-.12,.41-.02,.83-.03,1.24-.05Z"/>
      <path class="cls-4" d="M18.04,7.92c-1.27,1.61-2.54,1.83-3.81,0h3.81Z"/>
    </g>
  </g>
</svg>