<?xml version="1.0" encoding="UTF-8"?>
<svg id="Layer_2" data-name="Layer 2" xmlns="http://www.w3.org/2000/svg" viewBox="0 0 22.17 20.99">
  <defs>
    <style>
      .cls-1 {
        fill: #252525;
      }

      .cls-2 {
        fill: #242424;
      }

      .cls-3 {
        fill: #101010;
      }

      .cls-4 {
        fill: #424242;
      }
    </style>
  </defs>
  <g id="Layer_1-2" data-name="Layer 1">
    <g>
      <path class="cls-2" d="M20.22,17.92c-3.13-3.4-1.79-7.21-2.23-10.73-.65-1.08-1.29-2.16-1.93-3.25-1.49-.75-2.81-1.65-3.74-3.11-.46-.74-1.51-1.18-2.15-.49C7.48,3.24,3.13,5.13,3.9,10.27c.4,2.65-.12,5.18-2.11,7.65H20.22ZM6.43,7.41c.64-2.03,2.39-3.25,4.55-3.17,2.35,.09,4.19,1.41,4.63,3.76,.39,2.07,.23,4.26,.29,6.39,.02,1.01-.6,1.48-1.52,1.53-1.15,.05-2.31,.01-3.46,.01s-2.31,.01-3.46-.01c-.72-.02-1.29-.32-1.31-1.13-.04-2.47-.47-5,.28-7.38Z"/>
      <path class="cls-4" d="M21.38,8.82c-2.15,.88-1.5-1.94-2.41-2.87-.1-1.32-1.06-2.22-1.64-3.3,.56-.64,1.16-1.29,2.06-.61,.94,.72,1.57,1.76,1.83,2.87,.31,1.31,1.87,3.21,.16,3.91Z"/>
      <path class="cls-2" d="M2.13,2.76c.22-.68,.67-1.06,1.38-.84,.76,.25,.78,.89,.48,1.48-.28,.54-.71,1.01-1.07,1.51-.18,.43-.57,.76-.64,1.25,.13,.27,.08,.51-.16,.7-1.96,0-1.38-1.19-1.05-2.26-.1-.33,0-.58,.29-.75,.25-.37,.51-.73,.77-1.1Z"/>
      <path class="cls-1" d="M1.07,4.61c.1,.87,.19,1.75,1.05,2.26,.01,.93,.21,2.06-1.19,2.06C-.24,8.92,0,7.92,.06,7.19c.08-.95,.24-1.89,1.01-2.58Z"/>
      <path class="cls-2" d="M10.21,20.73c-.88-.09-1.22-.94-.87-1.37,.85-1.01,2.01-.8,3.11-.2,.58,.32,.66,.81,.12,.42-.03-.02-.23,.21-.35,.33-.55,.56-1.43,.35-2.02,.83Z"/>
      <path class="cls-3" d="M10.21,20.73c.49-.73,1.25-.77,2.02-.83-.22,1.38-1.08,1.19-2.02,.83Z"/>
      <path class="cls-1" d="M2.28,6.17c.21-.42,.43-.84,.64-1.25-.21,.42-.43,.84-.64,1.25Z"/>
      <path class="cls-1" d="M2.13,2.76c-.26,.37-.51,.73-.77,1.1-.05-.58,.29-.88,.77-1.1Z"/>
    </g>
  </g>
</svg>