<?xml version="1.0" encoding="UTF-8"?>
<svg id="Layer_2" data-name="Layer 2" xmlns="http://www.w3.org/2000/svg" viewBox="0 0 17.19 17.33">
  <defs>
    <style>
      .cls-1 {
        fill: #f6f6f6;
      }

      .cls-2 {
        fill: #202020;
      }

      .cls-3 {
        fill: #2b2b2b;
      }

      .cls-4 {
        fill: #2a2a2a;
      }

      .cls-5 {
        fill: #3a3a3a;
      }
    </style>
  </defs>
  <g id="Layer_1-2" data-name="Layer 1">
    <g>
      <path class="cls-2" d="M12.41,9.21c.09,.36-.02,.64-.33,.84-.22,.81,.14,1.84-.9,2.33-.77,.19-1.55,.38-2.33,.57-2.92,.68-5.61,.37-7.45-2.25C-.36,8.2-.58,5.58,1.4,3.02c.3-.34,.61-.68,.92-1.01,.3-.31,.64-.57,1.02-.78,.19-.28,.45-.39,.78-.32,1.54-.64,3.09-.42,4.65-.1,.26-.09,.45-.01,.56,.24,.26,.23,.37,.47,.33,.74-.04,.28-.1,.42-.17,.42-.06,.05-.12,.1-.19,.15-.09,.06-.19,.13-.29,.18-.08,.05-.16,.09-.25,.13-.09,.04-.18,.08-.28,.11-.38-.17-.76-.33-1.15-.5-.09-.04-.19-.08-.28-.12-.45,.02-.89,.03-1.34,.05-.46,.22-.92,.44-1.38,.66-2.4,3.07-2.66,4.92-.97,6.81,1.64,1.83,3.66,1.84,6.49,.01,.26-.17,.46-.46,.68-.69,.22-.47,.43-.93,.64-1.4,.01-.45,.03-.9,.05-1.35-.23-.37-.45-.73-.67-1.09,.32-.74,.63-1.49,1.75-1.14l.23,.19-.05,.3c.38,1.57,.62,3.14-.07,4.7Z"/>
      <path class="cls-3" d="M11.19,12.38c.11-.85,.11-1.74,.9-2.33,.96,2.16,3.07,3.29,4.49,5.04,.41,.51,.88,1.1,.43,1.69-.61,.79-1.43,.68-2.06-.04-1.28-1.43-3.11-2.39-3.75-4.37Z"/>
      <path class="cls-4" d="M12.3,4.02c-.9,.48-.93,1.38-1.08,2.23-.23-.37-.45-.73-.67-1.09-.43-.68-.85-1.36-1.27-2.04-.15-.06-.29-.13-.44-.19,.02-.06,.04-.12,.06-.18,.03-.07,.06-.14,.11-.21,.07-.15,.17-.28,.28-.41,.01-.36,.02-.72,.04-1.08,1.59,.39,2.58,1.38,2.97,2.97Z"/>
      <path class="cls-5" d="M8.78,.81c-1.55,.03-3.11,.07-4.66,.1,1.53-1.13,3.08-1.26,4.66-.1Z"/>
      <path class="cls-3" d="M12.41,9.2c.03-1.57,.05-3.13,.08-4.7,1.1,1.58,1.1,3.15-.08,4.7Z"/>
      <path class="cls-5" d="M2.33,2.01c-.11,.52-.42,.86-.92,1.01,.03-.59,.35-.92,.92-1.01Z"/>
      <path class="cls-5" d="M3.34,1.22c-.14,.51-.49,.77-1.02,.79,.15-.51,.45-.82,1.02-.79Z"/>
      <path class="cls-1" d="M5.71,2.21c-.46,.22-.92,.44-1.38,.66,.43-.27,.82-.64,1.38-.66Z"/>
      <path class="cls-1" d="M11.17,7.6c-.02,.55-.4,.94-.64,1.4,.22-.47,.43-.93,.64-1.4Z"/>
      <path class="cls-1" d="M9.28,3.12c-.15-.06-.29-.13-.44-.19l-.36-.15c-.38-.17-.76-.33-1.15-.5,.47,.16,1,.17,1.43,.39,.05,.02,.1,.05,.14,.08,.14,.09,.27,.21,.38,.37Z"/>
      <path class="cls-5" d="M9.3,2.36c0,.25,0,.51-.02,.76-.15-.06-.29-.13-.44-.19l-.36-.15c-.38-.17-.76-.33-1.15-.5-.09-.04-.19-.08-.28-.12,.75,0,1.49-.02,2.24-.03,0,.08,0,.15,.01,.23Z"/>
      <path class="cls-3" d="M11.17,7.6c.05,.59-.15,1.06-.64,1.4,.22-.47,.43-.93,.64-1.4Z"/>
      <path class="cls-5" d="M5.71,2.21c-.46,.22-.92,.44-1.38,.66,.31-.52,.77-.75,1.38-.66Z"/>
    </g>
  </g>
</svg>