<?xml version="1.0" encoding="UTF-8"?>
<svg id="Layer_2" data-name="Layer 2" xmlns="http://www.w3.org/2000/svg" viewBox="0 0 18.44 20.29">
  <defs>
    <style>
      .cls-1 {
        fill: #fcfdfe;
      }
    </style>
  </defs>
  <g id="Layer_1-2" data-name="Layer 1">
    <path class="cls-1" d="M17.76,8.26c.33-.31,.52-.78,.68-1.02,.06-1.69-1.72-3.64-3.37-3.42-1.81,.24-2.59-.31-3.42-1.92-1.27-2.47-3.84-2.55-5.05-.16-.78,1.55-1.43,2.2-3.29,2.14C.27,3.79-.87,5.86,.72,8.48c.82,1.34,.88,2.14,.03,3.51-1.59,2.57-.43,4.74,2.53,4.65,1.56-.04,2.34,.3,3.17,1.59,1.7,2.67,3.72,2.75,5.25,.16,.78-1.33,1.47-1.79,3.05-1.78,3.08,.02,4.41-2.08,2.82-4.49-1.04-1.57-1.12-2.6,.19-3.86Zm-8.6,5.54c-1.73,.04-3.46-1.67-3.53-3.48-.06-1.91,1.43-3.43,3.41-3.46,1.98-.03,3.52,1.43,3.53,3.34,.01,1.79-1.68,3.56-3.41,3.6Z"/>
  </g>
</svg>