<?xml version="1.0" encoding="UTF-8"?>
<svg id="Layer_2" data-name="Layer 2" xmlns="http://www.w3.org/2000/svg" viewBox="0 0 18.07 18.05">
  <defs>
    <style>
      .cls-1 {
        fill: #fdfeff;
      }

      .cls-2 {
        fill: #1992d4;
      }
    </style>
  </defs>
  <g id="Layer_1-2" data-name="Layer 1">
    <g>
      <path class="cls-1" d="M9.31,.02C-1.32,.06,.06-1.05,.06,9.26s-1.25,8.65,8.62,8.77c10.46-.12,9.33,1.35,9.36-9.15C18.07-.76,18.94,0,9.31,.02Zm-.15,14.77l-.89-.89c.08-.79,.64-1.18,1.22-.74,.71,.54,.82,1.29-.33,1.63Zm.14-2.96c-.24,.06-.67-.09-.84-.29s-.28-.67-.16-.87c.42-.68,.92-1.33,1.46-1.93,.7-.78,1.29-1.58,.48-2.57-.98-1.18-1.99-.87-2.91,.11-.5,.54-1.07,.69-2.16,.34,2.03-3.95,4.41-4.67,6.72-2.26,2.07,2.16,.55,6.6-2.59,7.47Z"/>
      <path class="cls-2" d="M9.16,14.79c-.68,.09-.98-.2-.89-.89l.89,.89Z"/>
    </g>
  </g>
</svg>