<?xml version="1.0" encoding="UTF-8"?>
<svg id="Layer_2" data-name="Layer 2" xmlns="http://www.w3.org/2000/svg" viewBox="0 0 22.19 22.18">
  <defs>
    <style>
      .cls-1 {
        fill: #e6f3fa;
      }

      .cls-2 {
        fill: #fdfeff;
      }

      .cls-3 {
        fill: #d0e9f6;
      }

      .cls-4 {
        fill: #1c93d4;
      }
    </style>
  </defs>
  <g id="Layer_1-2" data-name="Layer 1">
    <g>
      <path class="cls-2" d="M21.33,5.87c1.51,3.14,.54,6.46,.67,9.7,.06,1.54-.93,2.46-2.5,2.47-4.3,.04-8.61,.03-12.92,.01-1.61,0-2.46-.85-2.46-2.46-.02-4.3-.03-8.61,.01-12.91,.01-1.57,.93-2.56,2.47-2.5,3.24,.13,6.56-.83,9.7,.67,.6,1.68-1.43,3.05-.53,4.75,.25,.3,.52,.58,.84,.81,1.7,.9,3.06-1.16,4.71-.53Z"/>
      <path class="cls-1" d="M1.5,4.35c1.23,1.82,.43,4,.66,6,.35,3.08-1.4,6.97,.83,9.06,1.97,1.85,5.72,.4,8.67,.63,2.7,.21,5.52-.57,8.1,.52,.06,1.58-.92,1.55-1.67,1.55-4.82,.05-9.64-.03-14.46,.06C1.17,22.23-.05,21.37,0,18.74,.1,13.96,.03,9.18,.03,4.4l1.47-.06Z"/>
      <path class="cls-3" d="M15.25,6.94c-2.21-2.47-.81-4.32,1.06-6.08,2.08,1.27,3.75,2.95,5.02,5.02-1.76,1.87-3.61,3.27-6.08,1.06,.37-.42,.98-.61,1.27-1.22-.69,.21-.82,.88-1.26,1.23Z"/>
      <path class="cls-4" d="M15.25,6.94V3.27c2.03,.38,2.79,1.72,3.75,3.06-1.25,1.02-2.55,.51-3.75,.6,0,0,0,0,0,0Z"/>
    </g>
  </g>
</svg>